PathFileType	4	(X/Y/Z)	C:\Users\italobelli\Desktop\GitHub\PTbot_officialCBL\Personal_Results\FLX23_noisy2.trc
DataRate	CameraRate	NumFrames	NumMarkers	Units	OrigDataRate	OrigDataStartFrame	OrigNumFrames
106.533333	106.533333	17	9	m	106.533333	501	800
Frame#	Time		gu		centelbow		EpL		centpxt8		centijc7		ij		ts		aa		ai
			X1	Y1	Z1	X2	Y2	Z2	X3	Y3	Z3	X4	Y4	Z4	X5	Y5	Z5	X6	Y6	Z6	X7	Y7	Z7	X8	Y8	Z8	X9	Y9	Z9

501	4.6934	-0.080427	0.064542	0.13036	0.11686	0.047701	0.26487	0.11123	0.079173	0.26945	-0.046816	-0.15316	-0.008669	-0.046816	0.031938	-0.008669	0	0	0	-0.15243	0.0066964	0.049173	-0.11185	0.078589	0.13489	-0.1326	-0.080052	0.1189
502	4.7028	-0.080235	0.064003	0.13088	0.11677	0.043654	0.26532	0.11157	0.075151	0.27018	-0.046816	-0.15316	-0.008669	-0.046816	0.031938	-0.008669	0	0	0	-0.15242	0.0070189	0.049073	-0.11171	0.078175	0.13532	-0.13297	-0.080272	0.11822
503	4.7121	-0.080044	0.063449	0.1314	0.11663	0.039592	0.26576	0.11188	0.071109	0.2709	-0.046816	-0.15316	-0.008669	-0.046816	0.031938	-0.008669	0	0	0	-0.1524	0.0073417	0.048975	-0.11157	0.077753	0.13575	-0.13333	-0.080491	0.11755
504	4.7215	-0.079855	0.062879	0.13192	0.11646	0.035517	0.26619	0.11214	0.067049	0.27161	-0.046816	-0.15316	-0.008669	-0.046816	0.031938	-0.008669	0	0	0	-0.15238	0.0076648	0.048877	-0.11143	0.077323	0.13619	-0.1337	-0.080709	0.11687
505	4.7309	-0.079667	0.062296	0.13245	0.11624	0.031433	0.26661	0.11236	0.062974	0.2723	-0.046816	-0.15316	-0.008669	-0.046816	0.031938	-0.008669	0	0	0	-0.15236	0.007988	0.048781	-0.11129	0.076886	0.13663	-0.13406	-0.080926	0.11618
506	4.7403	-0.079482	0.0617	0.13298	0.11598	0.027342	0.26701	0.11255	0.058887	0.27298	-0.046816	-0.15316	-0.008669	-0.046816	0.031938	-0.008669	0	0	0	-0.15233	0.0083113	0.048687	-0.11115	0.076442	0.13707	-0.13442	-0.08114	0.1155
507	4.7497	-0.079298	0.061091	0.13351	0.11568	0.023247	0.26739	0.11269	0.05479	0.27364	-0.046816	-0.15316	-0.008669	-0.046816	0.031938	-0.008669	0	0	0	-0.15229	0.0086344	0.048594	-0.11102	0.075992	0.13751	-0.13478	-0.081352	0.11481
508	4.7591	-0.079116	0.060472	0.13404	0.11535	0.01915	0.26777	0.11279	0.050685	0.27428	-0.046816	-0.15316	-0.008669	-0.046816	0.031938	-0.008669	0	0	0	-0.15225	0.0089574	0.048503	-0.11088	0.075536	0.13796	-0.13514	-0.081562	0.11412
509	4.7685	-0.078937	0.059842	0.13457	0.11497	0.015054	0.26812	0.11286	0.046577	0.27491	-0.046816	-0.15316	-0.008669	-0.046816	0.031938	-0.008669	0	0	0	-0.15221	0.00928	0.048415	-0.11075	0.075074	0.1384	-0.1355	-0.081769	0.11343
510	4.7778	-0.07876	0.059202	0.1351	0.11455	0.010962	0.26846	0.11288	0.042466	0.27552	-0.046816	-0.15316	-0.008669	-0.046816	0.031938	-0.008669	0	0	0	-0.15217	0.0096022	0.048329	-0.11061	0.074608	0.13885	-0.13586	-0.081972	0.11273
511	4.7872	-0.078587	0.058554	0.13564	0.11409	0.0068758	0.26878	0.11286	0.038356	0.2761	-0.046816	-0.15316	-0.008669	-0.046816	0.031938	-0.008669	0	0	0	-0.15212	0.0099238	0.048245	-0.11048	0.074137	0.13929	-0.13621	-0.082172	0.11204
512	4.7966	-0.078416	0.057899	0.13617	0.11359	0.0027988	0.26909	0.1128	0.034249	0.27667	-0.046816	-0.15316	-0.008669	-0.046816	0.031938	-0.008669	0	0	0	-0.15206	0.010245	0.048163	-0.11035	0.073662	0.13974	-0.13656	-0.082368	0.11135
513	4.806	-0.078248	0.057236	0.1367	0.11305	-0.0012665	0.26937	0.11269	0.030149	0.27721	-0.046816	-0.15316	-0.008669	-0.046816	0.031938	-0.008669	0	0	0	-0.152	0.010565	0.048085	-0.11021	0.073183	0.14019	-0.13691	-0.08256	0.11066
514	4.8154	-0.078083	0.056568	0.13723	0.11248	-0.0053175	0.26964	0.11255	0.026057	0.27773	-0.046816	-0.15316	-0.008669	-0.046816	0.031938	-0.008669	0	0	0	-0.15194	0.010884	0.048009	-0.11008	0.072702	0.14063	-0.13725	-0.082746	0.10996
515	4.8248	-0.077922	0.055895	0.13776	0.11187	-0.0093516	0.26988	0.11236	0.021977	0.27822	-0.046816	-0.15316	-0.008669	-0.046816	0.031938	-0.008669	0	0	0	-0.15187	0.011202	0.047936	-0.10995	0.072217	0.14107	-0.13759	-0.082928	0.10927
516	4.8342	-0.077765	0.055219	0.13828	0.11122	-0.013366	0.27011	0.11213	0.01791	0.27869	-0.046816	-0.15316	-0.008669	-0.046816	0.031938	-0.008669	0	0	0	-0.15181	0.011519	0.047866	-0.10982	0.071731	0.14152	-0.13792	-0.083105	0.10858
517	4.8436	-0.077611	0.054539	0.13881	0.11053	-0.017358	0.27032	0.11186	0.013861	0.27913	-0.046816	-0.15316	-0.008669	-0.046816	0.031938	-0.008669	0	0	0	-0.15173	0.011835	0.0478	-0.10969	0.071243	0.14196	-0.13825	-0.083276	0.10789
